<svg xmlns="http://www.w3.org/2000/svg" viewBox="0 0 40 40" width="40" height="40">
    <defs>
        <!-- Насыщенный градиент фона -->
        <linearGradient id="bg-grad" x1="0%" y1="0%" x2="100%" y2="100%">
            <stop offset="0%" stop-color="#323438"/>
            <stop offset="100%" stop-color="#18191B"/>
        </linearGradient>

        <!-- Яркий градиент корпуса консоли -->
        <linearGradient id="console-grad" x1="0%" y1="0%" x2="0%" y2="100%">
            <stop offset="0%" stop-color="#4E5157"/>
            <stop offset="100%" stop-color="#2D2F33"/>
        </linearGradient>

        <!-- Мощное неоновое свечение для молнии -->
        <filter id="neon-glow" x="-50%" y="-50%" width="200%" height="200%">
            <feGaussianBlur stdDeviation="1.8" result="blur"/>
            <feComposite in="SourceGraphic" in2="blur" operator="over"/>
        </filter>

        <!-- Тень -->
        <filter id="soft-shadow" x="-20%" y="-20%" width="140%" height="140%">
            <feDropShadow dx="0" dy="2.5" stdDeviation="1.5" flood-color="#000000" flood-opacity="0.8"/>
        </filter>
    </defs>

    <!-- Темный фон иконки -->
    <rect x="1" y="1" width="38" height="38" rx="10" fill="url(#bg-grad)" stroke="#51545B" stroke-width="1"/>

    <!-- Группа терминала -->
    <g filter="url(#soft-shadow)">
        <!-- Острые симметричные ушки с расширенным на 10% основанием (Android Green) -->
        <path d="M 8.2,11.5 C 8.2,11.5 9.8,5.5 11,4.5 C 12.2,5.5 13.8,11.5 13.8,11.5" fill="#42FF95" stroke="#32C171" stroke-width="0.6" stroke-linejoin="round"/>
        <path d="M 31.8,11.5 C 31.8,11.5 30.2,5.5 29,4.5 C 27.8,5.5 26.2,11.5 26.2,11.5" fill="#42FF95" stroke="#32C171" stroke-width="0.6" stroke-linejoin="round"/>

        <!-- Корпус консоли -->
        <rect x="5" y="10" width="30" height="22" rx="3" fill="url(#console-grad)" stroke="#6B7078" stroke-width="1"/>

        <!-- Панель управления -->
        <circle cx="8.5" cy="13.5" r="0.9" fill="#FF5F56"/>
        <circle cx="11" cy="13.5" r="0.9" fill="#FFBD2E"/>
        <circle cx="13.5" cy="13.5" r="0.9" fill="#27C93F"/>

        <!-- Разделительная линия -->
        <line x1="5" y1="16" x2="35" y2="16" stroke="#5C6068" stroke-width="1"/>

        <!-- Индикаторы логов -->
        <circle cx="9.5" cy="20.5" r="1.2" fill="#409EFF"/>
        <rect x="13" y="19.8" width="16" height="1.4" rx="0.7" fill="#C3C8D6"/>

        <circle cx="9.5" cy="24.5" r="1.2" fill="#42FF95"/>
        <rect x="13" y="23.8" width="10" height="1.4" rx="0.7" fill="#C3C8D6"/>

        <circle cx="9.5" cy="28.5" r="1.2" fill="#FFD600"/>
        <rect x="13" y="27.8" width="8" height="1.4" rx="0.7" fill="#C3C8D6"/>
    </g>

    <!-- Молния -->
    <g filter="url(#neon-glow)">
        <path d="M 31,17 L 24,26 H 28 L 26,34 L 34,25 H 30 Z" fill="#00FF88" opacity="0.45"/>
        <path d="M 31,17 L 24,26 H 28 L 26,34 L 34,25 H 30 Z" fill="#FFFFFF" stroke="#00FF88" stroke-width="1.3" stroke-linejoin="round"/>
        <path d="M 31,17.5 L 24.5,25.5 H 28.5 L 26.5,33 L 33.5,24.5 H 29.5 Z" fill="#FFFFFF"/>
    </g>
</svg>
