<svg xmlns="http://www.w3.org/2000/svg" width="13" height="13" viewBox="0 0 13 13">
    <path d="M 2.5,1.5 C 2.5,0.8 3,0.5 3.5,0.5 C 4,0.5 4.5,0.8 4.5,1.5" fill="#6E6E6E" />
    <path d="M 8.5,1.5 C 8.5,0.8 9,0.5 9.5,0.5 C 10,0.5 10.5,0.8 10.5,1.5" fill="#6E6E6E" />
    <rect x="0.5" y="1.5" width="11" height="10" rx="1" fill="none" stroke="#6E6E6E" stroke-width="0.7" />
    <line x1="0.5" y1="5" x2="11.5" y2="5" stroke="#6E6E6E" stroke-width="0.7" />
    <circle cx="2.5" cy="3.5" r="0.3" fill="#6E6E6E" />
    <circle cx="4.5" cy="3.5" r="0.3" fill="#6E6E6E" />
    <circle cx="6.5" cy="3.5" r="0.3" fill="#6E6E6E" />
    <line x1="2.5" y1="7.5" x2="8.5" y2="7.5" stroke="#6E6E6E" stroke-width="0.5" stroke-linecap="round" />
    <line x1="2.5" y1="9.5" x2="7.5" y2="9.5" stroke="#6E6E6E" stroke-width="0.5" stroke-linecap="round" />
    <path d="M 11,4 L 7.5,9 H 10 L 9,13 L 13,8 H 10 Z" fill="#6E6E6E" stroke="#FFFFFF" stroke-width="0.3" stroke-linejoin="round" />
</svg>